<?xml version="1.0" encoding="UTF-8"?>
<svg id="Layer_2" data-name="Layer 2" xmlns="http://www.w3.org/2000/svg" viewBox="0 0 1922 4157">
  <defs>
    <style>
      .cls-1 {
        fill: #34353a;
      }

      .cls-2 {
        fill: #272829;
      }
    </style>
  </defs>
  <g id="Layer_1-2" data-name="Layer 1">
    <rect class="cls-1" width="1922" height="4157"/>
    <g>
      <rect class="cls-2" x="84" y="783" width="28" height="594"/>
      <rect class="cls-2" x="159" y="940" width="28" height="594"/>
      <rect class="cls-2" x="234" y="1097" width="28" height="594"/>
      <rect class="cls-2" x="309" y="1254" width="28" height="594"/>
    </g>
    <g>
      <circle class="cls-2" cx="1809.42" cy="2181.58" r="25.58"/>
      <circle class="cls-2" cx="1739.73" cy="2181.58" r="25.58"/>
      <circle class="cls-2" cx="1670.04" cy="2181.58" r="25.58"/>
      <circle class="cls-2" cx="1600.35" cy="2181.58" r="25.58"/>
      <circle class="cls-2" cx="1739.73" cy="2181.58" r="25.58"/>
      <circle class="cls-2" cx="1670.04" cy="2181.58" r="25.58"/>
      <circle class="cls-2" cx="1600.35" cy="2181.58" r="25.58"/>
      <circle class="cls-2" cx="1530.65" cy="2181.58" r="25.58"/>
      <circle class="cls-2" cx="1670.04" cy="2181.58" r="25.58"/>
      <circle class="cls-2" cx="1600.35" cy="2181.58" r="25.58"/>
      <circle class="cls-2" cx="1530.65" cy="2181.58" r="25.58"/>
      <circle class="cls-2" cx="1460.96" cy="2181.58" r="25.58"/>
      <circle class="cls-2" cx="1600.35" cy="2181.58" r="25.58"/>
      <circle class="cls-2" cx="1530.65" cy="2181.58" r="25.58"/>
      <circle class="cls-2" cx="1460.96" cy="2181.58" r="25.58"/>
      <circle class="cls-2" cx="1391.27" cy="2181.58" r="25.58"/>
      <circle class="cls-2" cx="1530.65" cy="2181.58" r="25.58"/>
      <circle class="cls-2" cx="1460.96" cy="2181.58" r="25.58"/>
      <circle class="cls-2" cx="1391.27" cy="2181.58" r="25.58"/>
      <circle class="cls-2" cx="1321.58" cy="2181.58" r="25.58"/>
      <circle class="cls-2" cx="1809.42" cy="2251.27" r="25.58"/>
      <circle class="cls-2" cx="1739.73" cy="2251.27" r="25.58"/>
      <circle class="cls-2" cx="1670.04" cy="2251.27" r="25.58"/>
      <circle class="cls-2" cx="1600.35" cy="2251.27" r="25.58"/>
      <circle class="cls-2" cx="1739.73" cy="2251.27" r="25.58"/>
      <circle class="cls-2" cx="1670.04" cy="2251.27" r="25.58"/>
      <circle class="cls-2" cx="1600.35" cy="2251.27" r="25.58"/>
      <circle class="cls-2" cx="1530.65" cy="2251.27" r="25.58"/>
      <circle class="cls-2" cx="1670.04" cy="2251.27" r="25.58"/>
      <circle class="cls-2" cx="1600.35" cy="2251.27" r="25.58"/>
      <circle class="cls-2" cx="1530.65" cy="2251.27" r="25.58"/>
      <circle class="cls-2" cx="1460.96" cy="2251.27" r="25.58"/>
      <circle class="cls-2" cx="1600.35" cy="2251.27" r="25.58"/>
      <circle class="cls-2" cx="1530.65" cy="2251.27" r="25.58"/>
      <circle class="cls-2" cx="1460.96" cy="2251.27" r="25.58"/>
      <circle class="cls-2" cx="1391.27" cy="2251.27" r="25.58"/>
      <circle class="cls-2" cx="1530.65" cy="2251.27" r="25.58"/>
      <circle class="cls-2" cx="1460.96" cy="2251.27" r="25.58"/>
      <circle class="cls-2" cx="1391.27" cy="2251.27" r="25.58"/>
      <circle class="cls-2" cx="1321.58" cy="2251.27" r="25.58"/>
      <circle class="cls-2" cx="1809.42" cy="2320.96" r="25.58"/>
      <circle class="cls-2" cx="1739.73" cy="2320.96" r="25.58"/>
      <circle class="cls-2" cx="1670.04" cy="2320.96" r="25.58"/>
      <circle class="cls-2" cx="1600.35" cy="2320.96" r="25.58"/>
      <circle class="cls-2" cx="1739.73" cy="2320.96" r="25.58"/>
      <circle class="cls-2" cx="1670.04" cy="2320.96" r="25.58"/>
      <circle class="cls-2" cx="1600.35" cy="2320.96" r="25.58"/>
      <circle class="cls-2" cx="1530.65" cy="2320.96" r="25.58"/>
      <circle class="cls-2" cx="1670.04" cy="2320.96" r="25.58"/>
      <circle class="cls-2" cx="1600.35" cy="2320.96" r="25.58"/>
      <circle class="cls-2" cx="1530.65" cy="2320.96" r="25.58"/>
      <circle class="cls-2" cx="1460.96" cy="2320.96" r="25.58"/>
      <circle class="cls-2" cx="1600.35" cy="2320.96" r="25.58"/>
      <circle class="cls-2" cx="1530.65" cy="2320.96" r="25.58"/>
      <circle class="cls-2" cx="1460.96" cy="2320.96" r="25.58"/>
      <circle class="cls-2" cx="1391.27" cy="2320.96" r="25.58"/>
      <circle class="cls-2" cx="1530.65" cy="2320.96" r="25.58"/>
      <circle class="cls-2" cx="1460.96" cy="2320.96" r="25.58"/>
      <circle class="cls-2" cx="1391.27" cy="2320.96" r="25.58"/>
      <circle class="cls-2" cx="1321.58" cy="2320.96" r="25.58"/>
      <circle class="cls-2" cx="1809.42" cy="2390.65" r="25.58"/>
      <circle class="cls-2" cx="1739.73" cy="2390.65" r="25.58"/>
      <circle class="cls-2" cx="1670.04" cy="2390.65" r="25.58"/>
      <circle class="cls-2" cx="1600.35" cy="2390.65" r="25.58"/>
      <circle class="cls-2" cx="1739.73" cy="2390.65" r="25.58"/>
      <circle class="cls-2" cx="1670.04" cy="2390.65" r="25.58"/>
      <circle class="cls-2" cx="1600.35" cy="2390.65" r="25.58"/>
      <circle class="cls-2" cx="1530.65" cy="2390.65" r="25.58"/>
      <circle class="cls-2" cx="1670.04" cy="2390.65" r="25.58"/>
      <circle class="cls-2" cx="1600.35" cy="2390.65" r="25.58"/>
      <circle class="cls-2" cx="1530.65" cy="2390.65" r="25.58"/>
      <circle class="cls-2" cx="1460.96" cy="2390.65" r="25.58"/>
      <circle class="cls-2" cx="1600.35" cy="2390.65" r="25.58"/>
      <circle class="cls-2" cx="1530.65" cy="2390.65" r="25.58"/>
      <circle class="cls-2" cx="1460.96" cy="2390.65" r="25.58"/>
      <circle class="cls-2" cx="1391.27" cy="2390.65" r="25.58"/>
      <circle class="cls-2" cx="1530.65" cy="2390.65" r="25.58"/>
      <circle class="cls-2" cx="1460.96" cy="2390.65" r="25.58"/>
      <circle class="cls-2" cx="1391.27" cy="2390.65" r="25.58"/>
      <circle class="cls-2" cx="1321.58" cy="2390.65" r="25.58"/>
    </g>
    <g>
      <rect class="cls-2" y="3153" width="1129" height="25"/>
      <rect class="cls-2" y="3232" width="1009" height="25"/>
      <rect class="cls-2" y="3311" width="889" height="25"/>
    </g>
  </g>
</svg>