<?xml version="1.0" encoding="UTF-8"?>
<svg id="Layer_2" data-name="Layer 2" xmlns="http://www.w3.org/2000/svg" viewBox="0 0 444 387.88">
  <defs>
    <style>
      .cls-1 {
        fill: #bfbfbf;
      }
    </style>
  </defs>
  <g id="Layer_1-2" data-name="Layer 1">
    <g id="Layer_2-2" data-name="Layer 2">
      <g id="Layer_1-2" data-name="Layer 1-2">
        <g id="Layer_2-2" data-name="Layer 2-2">
          <path class="cls-1" d="m442.32,369.05L232.87,6.27c-3.48-6.01-11.17-8.05-17.18-4.57-1.9,1.1-3.47,2.67-4.57,4.57L1.68,369.05c-3.46,6.01-1.4,13.69,4.61,17.15,1.91,1.1,4.07,1.68,6.27,1.68h177.49l53.68-93h-87.66c-1.73,0-3.14-1.41-3.14-3.14h0c0-.55.14-1.09.42-1.57l65.93-114.17c1.49-2.59,3.94-2.59,5.43,0l65.92,114.17c.87,1.5.35,3.42-1.15,4.29-.47.27-1.01.42-1.56.42h-31.43l-53.68,93h228.63c6.94,0,12.56-5.63,12.56-12.56,0-2.2-.58-4.36-1.68-6.27Z"/>
          <polygon class="cls-1" points="193.41 382.06 261.54 264.05 125.28 264.05 193.41 382.06"/>
        </g>
      </g>
    </g>
  </g>
</svg>