<?xml version="1.0" encoding="utf-8"?>
<!-- Generator: Adobe Illustrator 22.1.0, SVG Export Plug-In . SVG Version: 6.00 Build 0)  -->
<svg version="1.1" id="Layer_1" xmlns="http://www.w3.org/2000/svg" xmlns:xlink="http://www.w3.org/1999/xlink" x="0px" y="0px"
	 viewBox="0 0 444 387.9" style="enable-background:new 0 0 444 387.9;" xml:space="preserve">
<style type="text/css">
	.st0{fill:#231F20;}
</style>
<title>Asset 2</title>
<g id="Layer_2_1_">
	<g>
		<path class="st0" d="M442.3,369L232.9,6.3c-3.5-6-11.2-8.1-17.2-4.6c-1.9,1.1-3.5,2.7-4.6,4.6L1.7,369c-3.5,6-1.4,13.7,4.6,17.2
			c1.9,1.1,4.1,1.7,6.3,1.7h177.5l53.7-93h-87.7c-1.7,0-3.1-1.4-3.1-3.1c0-0.6,0.1-1.1,0.4-1.6L219.3,176c1.5-2.6,3.9-2.6,5.4,0
			l65.9,114.2c0.9,1.5,0.4,3.4-1.1,4.3c-0.5,0.3-1,0.4-1.6,0.4h-31.4l-53.7,93h228.6c6.9,0,12.6-5.6,12.6-12.5
			C444,373.1,443.4,371,442.3,369z"/>
		<polygon class="st0" points="193.4,382.1 261.6,264 125.3,264 		"/>
	</g>
</g>
</svg>
