<svg xmlns="http://www.w3.org/2000/svg" viewBox="0 0 1272.69 459.33"><defs><style>.cls-1,.cls-2{fill:#fff;}.cls-2{font-size:373.82px;font-family:Qualy-Bold, Qualy;font-weight:700;letter-spacing:-0.03em;}.cls-3{letter-spacing:0em;}.cls-4{letter-spacing:-0.1em;}.cls-5{letter-spacing:0em;}</style></defs><title>Asset 2</title><g id="Layer_2" data-name="Layer 2"><g id="Layer_1-2" data-name="Layer 1"><g id="Layer_2-2" data-name="Layer 2"><path class="cls-1" d="M442.32,369.05,232.87,6.27a12.57,12.57,0,0,0-21.75,0L1.68,369.05a12.56,12.56,0,0,0,10.88,18.83H190.05l53.68-93H156.07a3.14,3.14,0,0,1-3.14-3.14,3.11,3.11,0,0,1,.42-1.57L219.28,176c1.49-2.59,3.94-2.59,5.43,0l65.92,114.17a3.14,3.14,0,0,1-2.71,4.71H256.49l-53.68,93H431.44a12.56,12.56,0,0,0,10.88-18.83Z"/><polygon class="cls-1" points="193.41 382.06 261.54 264.05 125.28 264.05 193.41 382.06"/></g><text class="cls-2" transform="translate(398.56 387.78)">r<tspan class="cls-3" x="191.65" y="0">ti</tspan><tspan class="cls-4" x="490.09" y="0">y</tspan><tspan class="cls-5" x="686.85" y="0">s</tspan></text></g></g></svg>